<svg width="60" height="60" viewBox="0 0 60 60" fill="none" xmlns="http://www.w3.org/2000/svg">
<path d="M4.78125 5.03911C4.35938 5.3438 4.33594 6.11724 4.33594 29.9766C4.33594 52.4297 4.35938 54.6329 4.71094 54.9844C5.01562 55.2891 5.20312 55.3126 5.60156 55.1016C6.07031 54.8438 6.09375 54.6797 6.09375 49.9219V45.0001H30H53.9062V49.9219C53.9062 54.4688 53.9297 54.8438 54.3516 55.0547C54.6562 55.2188 54.9141 55.1954 55.2188 54.961C55.6406 54.6563 55.6641 53.8594 55.7344 30.1641C55.7812 6.72661 55.7578 5.67193 55.3594 5.1563C54.9844 4.71099 54.8438 4.66411 54.4219 4.89849C53.9297 5.1563 53.9062 5.29693 53.9062 9.37505V13.5938H36.6797H19.4531V12.8204C19.4531 11.5547 19.0312 10.4297 18.2578 9.70318C17.5547 9.02349 17.5547 9.02349 14.2266 8.95318C11.3438 8.9063 10.8047 8.95318 10.1016 9.32818C9.04688 9.89068 8.4375 11.0626 8.4375 12.4688V13.5938H7.26562H6.09375V9.37505C6.09375 5.50786 6.04688 5.1563 5.64844 4.94536C5.34375 4.7813 5.08594 4.80474 4.78125 5.03911ZM17.0625 10.9219C17.4609 11.2032 17.5781 11.5079 17.5781 12.3282V13.3594H13.9453H10.3125V12.3282C10.3125 10.7579 10.7578 10.5469 13.9453 10.5469C15.9141 10.5469 16.6641 10.6407 17.0625 10.9219ZM53.9062 17.3438V19.4532H30H6.09375V17.3438V15.2344H30H53.9062V17.3438ZM53.9062 29.1797V37.2657H36.7031H19.5234L19.3828 35.9297C19.1016 33.2344 18 32.5782 13.8281 32.5782C11.3203 32.5782 10.7812 32.6485 10.125 33.0469C9.04688 33.7032 8.4375 34.8282 8.4375 36.1407V37.2657H7.26562H6.09375V29.1797V21.0938H30H53.9062V29.1797ZM17.2031 34.8282C17.4375 35.0391 17.5781 35.6016 17.5781 36.2344V37.2657H13.9453H10.3125V36.1407C10.3125 35.5313 10.4297 34.8985 10.5938 34.7344C10.7812 34.5469 11.8594 34.4532 13.8516 34.4532C16.2656 34.4532 16.9219 34.5235 17.2031 34.8282ZM53.9062 40.9922V43.1251H30H6.09375V41.0626V39.0235L30 38.9532L53.9062 38.8594V40.9922Z" fill="#242321" fill-opacity="0.5"/>
</svg>
