<svg width="61" height="60" viewBox="0 0 61 60" fill="none" xmlns="http://www.w3.org/2000/svg">
<path d="M12.7813 11.4844C11.5391 11.7656 10.3672 12.6328 9.6875 13.7812L9.05469 14.8828L8.98438 22.8984C8.91406 30.75 8.91406 30.9375 8.44531 30.9375C7.71875 30.9375 6.21875 31.8047 5.70313 32.5078C4.83594 33.7266 4.71875 34.8281 4.71875 41.5312C4.71875 47.1094 4.76563 48.0703 5.09375 48.375C5.375 48.6562 5.96094 48.75 7.53125 48.75C10.0859 48.75 10.3438 48.5625 10.3438 46.7344V45.4688H30.5H50.6563V46.7344C50.6563 48.5625 50.9141 48.75 53.4688 48.75C55.0625 48.75 55.625 48.6562 55.9297 48.375C56.2578 48.0234 56.3047 47.2031 56.2344 40.8984L56.1641 33.8203L55.5078 32.8594C54.875 31.875 53.4219 30.9375 52.5313 30.9375C52.0625 30.9375 52.0625 30.8203 52.0625 23.6719C52.0625 15.2344 51.9453 14.4375 50.6094 12.9844C48.9688 11.2031 49.5781 11.25 30.4063 11.2734C21.1016 11.2969 13.1797 11.3672 12.7813 11.4844ZM48.7344 13.5938C50.1172 14.4375 50.1875 14.8594 50.1875 23.2031V30.7031H48.0781H45.9688V29.1094C45.9688 27.1172 45.2891 25.6641 44.0938 25.0312C43.3906 24.6562 42.6875 24.6094 38.9375 24.6094C35.2813 24.6094 34.4844 24.6797 33.7813 25.0312C32.5859 25.6172 31.9063 27.0938 31.9063 29.1094V30.7031H30.5H29.0938V29.1094C29.0938 27.0938 28.4141 25.6172 27.2188 25.0312C26.5156 24.6797 25.7188 24.6094 22.0625 24.6094C18.2656 24.6094 17.6094 24.6562 16.9063 25.0547C15.6875 25.6875 15.1953 26.6953 15.0781 28.8516L14.9609 30.7031H12.8984H10.8125V23.0859C10.8125 14.6484 10.8359 14.4609 12.2891 13.5938C13.0156 13.1484 13.6016 13.125 30.5 13.125C47.6094 13.125 47.9844 13.125 48.7344 13.5938ZM26.7969 26.8828C27.125 27.1875 27.2188 27.6094 27.2188 28.9922V30.7031H22.0625H16.9063V29.0156C16.9063 26.4375 16.8125 26.4844 22.0156 26.4844C25.7422 26.4844 26.4219 26.5312 26.7969 26.8828ZM43.6719 26.8828C44 27.1875 44.0938 27.6094 44.0938 28.9922V30.7031H38.9375H33.7813V29.0156C33.7813 26.4375 33.6875 26.4844 38.8906 26.4844C42.6172 26.4844 43.2969 26.5312 43.6719 26.8828ZM53.6094 33.375L54.4063 34.1719V36.5391V38.9062H30.5H6.59375V36.5859C6.59375 34.5938 6.66406 34.1953 7.08594 33.6562C7.36719 33.3047 7.8125 32.9062 8.09375 32.8125C8.35156 32.6953 18.5469 32.6016 30.7109 32.6016L52.8125 32.5781L53.6094 33.375ZM54.4063 42.0234V43.5234L52.1328 43.6641C49.1563 43.875 11.8438 43.875 8.89063 43.6641L6.59375 43.5234V42.0234V40.5469H30.5H54.4063V42.0234ZM8.46875 46.1719C8.46875 46.8281 8.42188 46.875 7.53125 46.875C6.64063 46.875 6.59375 46.8281 6.59375 46.1719C6.59375 45.5156 6.64063 45.4688 7.53125 45.4688C8.42188 45.4688 8.46875 45.5156 8.46875 46.1719ZM54.4063 46.1719C54.4063 46.8281 54.3594 46.875 53.4688 46.875C52.5781 46.875 52.5313 46.8281 52.5313 46.1719C52.5313 45.5156 52.5781 45.4688 53.4688 45.4688C54.3594 45.4688 54.4063 45.5156 54.4063 46.1719Z" fill="#242321" fill-opacity="0.5"/>
</svg>
