<svg width="60" height="60" viewBox="0 0 60 60" fill="none" xmlns="http://www.w3.org/2000/svg">
<path d="M11.625 14.0859C10.3594 14.3906 9.16408 15.3516 8.64845 16.5C8.27345 17.3438 8.20314 18.0703 8.20314 22.0781V26.7188H7.31252C6.82033 26.7188 6.18752 26.8828 5.88283 27.0938C4.75783 27.8906 4.68751 28.4531 4.68751 37.2188C4.68751 46.7109 4.54689 46.1719 7.00783 46.1719C9.02345 46.1719 9.37502 45.9375 9.37502 44.6484V43.5938H30H50.625V44.6484C50.625 45.9375 50.9766 46.1719 53.0391 46.1719C55.4532 46.1719 55.3125 46.6875 55.3125 37.1719C55.3125 28.4531 55.2422 27.8906 54.1172 27.0938C53.8125 26.8828 53.1797 26.7188 52.6875 26.7188H51.7969V22.0781C51.7969 18.0703 51.7266 17.3438 51.3516 16.5C50.7657 15.2344 49.5938 14.3438 48.0469 14.0625C46.4766 13.7578 12.9141 13.7813 11.625 14.0859ZM29.0625 23.7891V31.875H21.211H13.3594V30.2344C13.3594 27.75 12.7735 26.8828 10.8047 26.5781L9.84377 26.4141V22.3359C9.84377 17.8828 10.0078 17.1094 11.1328 16.2188C11.7656 15.7031 11.9063 15.7031 20.4141 15.7031H29.0625V23.7891ZM49.1719 16.5L50.0391 17.2969L50.1094 21.8906C50.1797 26.2031 50.1563 26.4844 49.7578 26.4844C49.5235 26.4844 48.9375 26.6016 48.4453 26.7422C47.1328 27.0938 46.6407 28.0313 46.6407 30.1641V31.875H38.7891H30.9375V23.7891V15.7031H39.6094H48.2813L49.1719 16.5ZM11.1094 28.5C11.4375 28.6172 11.4844 29.2266 11.4844 32.8594C11.4844 35.2969 11.5781 37.2422 11.7188 37.5234C11.9531 37.9688 12.4219 37.9688 29.8828 37.9688C45.8438 37.9688 47.8125 37.9219 48.1407 37.5938C48.4453 37.2891 48.5157 36.5391 48.5157 32.9297C48.5157 29.25 48.5625 28.6172 48.8907 28.5C49.5703 28.2422 52.8516 28.3359 53.1563 28.6406C53.3672 28.8516 53.4375 30.6797 53.4375 35.4375V41.9531H30H6.56252V35.2969C6.56252 30.1875 6.63283 28.5938 6.8672 28.5234C7.28908 28.3359 10.6641 28.3359 11.1094 28.5ZM46.6407 34.8047V36.0938H30H13.3594V34.8047V33.5156H30H46.6407V34.8047ZM7.68752 43.9922C7.73439 44.1797 7.54689 44.2969 7.17189 44.2969C6.77345 44.2969 6.56252 44.1797 6.56252 43.9219C6.56252 43.4766 7.52345 43.5469 7.68752 43.9922ZM53.4375 43.9453C53.4375 44.1563 53.2266 44.2969 52.8516 44.2969C52.2891 44.2969 52.1016 44.0625 52.4297 43.7578C52.711 43.4531 53.4375 43.5938 53.4375 43.9453Z" fill="#B80300"/>
</svg>
