<svg width="61" height="60" viewBox="0 0 61 60" fill="none" xmlns="http://www.w3.org/2000/svg">
<path d="M24.4297 10.0781C23.211 10.3594 21.8047 11.4844 21.1953 12.6328C20.5625 13.8516 20.5157 14.9531 21.0078 18.5156C21.1953 19.875 21.3594 21.1641 21.3594 21.375C21.3594 21.7734 20.8438 21.7969 13.7891 21.7969C4.83597 21.7969 5.42191 21.6094 5.42191 24.4453C5.42191 26.4375 5.70316 26.9531 6.8516 26.9531H7.53129V38.1797C7.53129 48.0938 7.57816 49.4531 7.90629 49.7813C8.42191 50.3203 11.7969 50.3203 12.3125 49.7813C12.6407 49.4531 12.6875 48.0938 12.6875 38.1797V26.9531L17.3047 27L21.9453 27.0703L22.086 28.1484C22.4141 30.4219 23.1875 31.0078 26.0235 31.1719L28.0391 31.2891L28.1094 32.3672L28.1797 33.4688L25.7657 33.5625C23.0469 33.6797 22.0625 34.0313 21.4766 35.1563C20.6797 36.7031 21.4297 38.7656 23 39.3047C23.4453 39.4688 24.8047 39.5859 26 39.5859L28.1563 39.6094V42.0469V44.4609L27.0078 44.625C24.9688 44.8828 23.6797 46.1719 23.375 48.1875C23.2813 48.9375 23.3282 49.2891 23.6563 49.6875C24.0313 50.1328 24.1719 50.1797 24.5938 49.9453C24.9688 49.7344 25.1094 49.4531 25.1094 48.8438C25.1094 47.9297 25.4375 47.1563 26.0235 46.7109C26.2813 46.5 27.6407 46.4297 30.4532 46.4063H34.5313L35.211 47.0859C35.7266 47.625 35.8907 48 35.8907 48.7031C35.8907 49.8281 36.336 50.2969 37.0391 49.9219C37.4375 49.7344 37.5313 49.4531 37.5313 48.5625C37.5313 46.4063 36.2422 44.9766 34.0391 44.6719L32.8438 44.5078V42.0703V39.6094L35.0235 39.5859C36.1953 39.5859 37.5547 39.4688 38 39.3047C39.5703 38.7656 40.3203 36.7031 39.5469 35.1797C38.9141 33.9844 38.1407 33.6797 35.3516 33.5625L32.8203 33.4453L32.8907 32.3672L32.961 31.2891L35.1172 31.1719C37.9063 31.0078 38.5625 30.4922 38.9141 28.1484L39.0547 27.0703L43.6953 27L48.3125 26.9531V38.1797C48.3125 48.0938 48.3594 49.4531 48.6875 49.7813C49.2032 50.3203 52.5782 50.3203 53.0938 49.7813C53.4219 49.4531 53.4688 48.0938 53.4688 38.1797V26.9531H54.1485C55.2969 26.9531 55.5782 26.4375 55.5782 24.3984C55.5782 21.6328 56.1407 21.7969 47.1407 21.7969H39.5703L39.711 20.7891C40.1563 17.5781 40.3907 14.5078 40.25 13.7813C40.0391 12.6094 38.8907 11.1328 37.7188 10.5C36.7578 9.98438 36.4532 9.96094 30.9688 9.91407C27.8047 9.89063 24.875 9.96094 24.4297 10.0781ZM37.086 12.2578C37.5313 12.5391 38.0703 13.1719 38.3047 13.6406C38.7032 14.4609 38.7032 14.625 38.1172 19.2656C37.8125 21.8672 37.4375 25.0781 37.2969 26.3438C36.9922 29.3672 36.8516 29.5313 34.5547 29.5313H32.8438V25.1719V20.8125L32.1641 20.1328C31.25 19.2422 29.8907 19.1953 28.9297 20.0156L28.2735 20.5781L28.1563 25.0078L28.0391 29.4141L26.375 29.4844C24.1485 29.5781 23.9844 29.3672 23.6797 26.3203C23.5625 25.0547 23.211 21.8906 22.8594 19.2656C22.2735 14.625 22.2735 14.4844 22.6953 13.6406C22.9297 13.1719 23.4688 12.5391 23.9141 12.2578C24.6875 11.7422 24.875 11.7188 30.5 11.7188C36.125 11.7188 36.3125 11.7422 37.086 12.2578ZM30.9688 21.5391C31.1094 21.8203 31.2032 24.2344 31.2032 27.75V33.5156H30.5H29.7969V27.75C29.7969 22.2656 29.9141 21.0938 30.5 21.0938C30.6172 21.0938 30.8282 21.3047 30.9688 21.5391ZM21.6407 24.375L21.7344 25.3125H14.3985H7.06254V24.5391C7.06254 24.0938 7.13285 23.6719 7.2266 23.6016C7.29691 23.5078 10.5547 23.4375 14.4688 23.4375H21.5469L21.6407 24.375ZM53.8907 24.4219L53.961 25.3125H46.5547C39.875 25.3125 39.125 25.2656 39.2657 24.9375C39.336 24.7266 39.4063 24.3047 39.4063 24V23.4375L46.625 23.4844L53.8204 23.5547L53.8907 24.4219ZM10.8125 37.7344V48.2813H10.1094H9.40629V37.7344V27.1875H10.1094H10.8125V37.7344ZM51.5938 37.7344V48.2813H50.8907H50.1875V37.7344V27.1875H50.8907H51.5938V37.7344ZM37.9063 35.9766C38.2578 36.5156 38.2578 36.6094 37.9063 37.1484L37.5313 37.7344H30.5H23.4688L23.0938 37.1484C22.7422 36.6094 22.7422 36.5156 23.0938 35.9766L23.4688 35.3906H30.5H37.5313L37.9063 35.9766ZM31.2032 42.0703V44.5313H30.5H29.7969V42.0703V39.6094H30.5H31.2032V42.0703Z" fill="#242321" fill-opacity="0.5"/>
</svg>
