<svg width="61" height="60" viewBox="0 0 61 60" fill="none" xmlns="http://www.w3.org/2000/svg">
<path fill-rule="evenodd" clip-rule="evenodd" d="M55.298 23.1327C55.2746 27.328 55.6954 30.3515 55.1094 31.0546C54.5235 31.7577 51.4777 31.5233 51.4777 31.5233L45.009 31.4999C41.4465 31.4999 38.1887 31.4764 37.8137 31.453C37.4152 31.453 34.2277 31.4764 30.7121 31.5467L24.3371 31.6639C24.3371 31.6639 24.6407 45.1171 24.0548 46.5233C23.4688 47.9296 13.9074 47.1092 13.9074 47.1092C6.94646 47.1092 6.47771 47.0389 5.86834 45.8905C5.63396 45.4452 5.58709 43.2186 5.6574 35.8358C5.72771 27.0467 5.77459 26.2733 6.2199 24.9374C7.18084 22.0546 8.37615 20.1561 10.6027 17.9061C12.8527 15.6796 14.4933 14.6483 17.5402 13.5702L19.0637 13.0077L36.2902 12.9608C51.2199 12.914 53.6105 12.9374 54.1496 13.2421L54.1842 13.2614C54.3783 13.3699 54.5392 13.4599 54.6725 13.5805C55.3206 14.1661 55.3173 15.4724 55.2981 23.1271L55.298 23.1327ZM8.00115 25.1952C9.71209 20.3905 12.9699 17.0858 17.7512 15.3749L19.7668 14.6483L36.4074 14.578C49.4387 14.5311 53.1184 14.578 53.3527 14.8124C53.5168 14.9765 53.634 15.6796 53.634 16.453V17.8124H37.6965C27.0559 17.8124 21.3605 17.9061 20.5402 18.0702C16.9308 18.8202 13.4152 21.5858 11.8449 24.8671C10.5558 27.5858 10.4855 28.3358 10.4855 37.3358L10.509 45.4686H9.12615C8.21209 45.4686 7.64959 45.3514 7.48553 45.1405C7.27459 44.8827 7.22771 42.5389 7.27459 35.9296L7.3449 27.0702L8.00115 25.1952ZM53.634 23.3202C53.634 23.3202 53.8491 28.4765 53.634 29.2968C53.4188 30.1171 50.7746 29.7655 44.8449 29.7655H38.634L30.3605 29.7186L24.1027 29.7655V19.6874H53.634V23.3202ZM12.4543 28.5702C12.8058 25.5702 15.3371 22.2186 18.3371 20.7186C19.2512 20.2733 20.5637 19.8514 21.2199 19.7577L22.4621 19.6171V29.7655H12.3137L12.4543 28.5702ZM22.4621 37.1483C22.4621 42.6327 22.4141 43.0077 22.4141 43.0077C22.4141 43.0077 22.4141 43.828 22.2969 44.9999C22.2323 45.6465 19.6496 45.4921 19.6496 45.4921L12.2668 45.3514V43.828L12.1965 35.9061L12.2668 31.5233L17.3527 31.453L22.4621 31.4061V37.1483Z" fill="#242321" fill-opacity="0.5"/>
<path fill-rule="evenodd" clip-rule="evenodd" d="M52.5127 36.0936H30.05C29.93 36.0936 29.8515 36.1376 29.8141 36.1719C29.8057 36.1796 29.8003 36.186 29.7969 36.1904V44.1999C29.8003 44.2043 29.8057 44.2107 29.8141 44.2183C29.8515 44.2527 29.93 44.2967 30.05 44.2967H52.5127C52.6326 44.2967 52.7112 44.2527 52.7486 44.2183C52.7569 44.2107 52.7624 44.2043 52.7657 44.1999V36.1904C52.7624 36.186 52.7569 36.1796 52.7486 36.1719C52.7112 36.1376 52.6326 36.0936 52.5127 36.0936ZM30.05 34.2186C28.8747 34.2186 27.9219 35.0943 27.9219 36.1745V44.2157C27.9219 45.296 28.8747 46.1717 30.05 46.1717H52.5127C53.6879 46.1717 54.6407 45.296 54.6407 44.2157V36.1745C54.6407 35.0943 53.6879 34.2186 52.5127 34.2186H30.05Z" fill="#242321" fill-opacity="0.5"/>
</svg>
