<svg width="60" height="60" viewBox="0 0 60 60" fill="none" xmlns="http://www.w3.org/2000/svg">
<path d="M6.2812 13.2422C5.10933 13.8984 5.10933 13.8047 5.13277 23.1328C5.1562 27.3281 5.17964 27.6797 5.62495 28.125C5.88277 28.3828 6.39839 28.5938 6.77339 28.5938C7.38277 28.5938 7.47652 28.6875 7.61714 29.5078C7.71089 30.0234 8.01558 30.6562 8.3437 30.9609L8.95308 31.5234L15.4218 31.5C18.9843 31.5 22.2421 31.4766 22.6171 31.4531C23.0156 31.4531 26.2031 31.4766 29.7187 31.5469L36.0937 31.6641L36.1171 32.6484C36.1171 33.1875 36.1406 35.7656 36.164 38.3672C36.2109 42.75 36.2343 43.1484 36.7031 43.7578C37.0078 44.1797 37.5234 44.4844 38.1562 44.625C39.0234 44.8359 39.1406 44.9297 39.1406 45.5156C39.1406 45.8672 39.3515 46.3828 39.6093 46.6406C40.0546 47.0859 40.3828 47.1094 46.5234 47.1094C53.4843 47.1094 53.9531 47.0391 54.5625 45.8906C54.7968 45.4453 54.8437 43.2188 54.7734 35.8359C54.7031 27.0469 54.6562 26.2734 54.2109 24.9375C53.25 22.0547 52.0546 20.1562 49.8281 17.9062C47.5781 15.6797 45.9375 14.6484 42.8906 13.5703L41.3671 13.0078L24.1406 12.9609C9.21089 12.9141 6.82027 12.9375 6.2812 13.2422ZM42.6796 15.375C47.4609 17.0859 50.7187 20.3906 52.4296 25.1953L53.0859 27.0703L53.1562 35.9297C53.2031 42.5391 53.1562 44.8828 52.9453 45.1406C52.7812 45.3516 52.2187 45.4688 51.3046 45.4688H49.9218L49.9453 37.3359C49.9453 28.3359 49.875 27.5859 48.5859 24.8672C47.0156 21.5859 43.5 18.8203 39.8906 18.0703C39.0703 17.9062 33.375 17.8125 22.7343 17.8125H6.79683V16.4531C6.79683 15.6797 6.91402 14.9766 7.07808 14.8125C7.31245 14.5781 10.9921 14.5312 24.0234 14.5781L40.664 14.6484L42.6796 15.375ZM10.0781 23.3203V26.9531H8.43745H6.79683V23.3203V19.6875H8.43745H10.0781V23.3203ZM21.7968 24.7266V29.7656H15.5859C9.6562 29.7656 9.37495 29.7422 9.37495 29.3203C9.37495 29.0156 9.60933 28.8281 10.1718 28.7344C11.6953 28.4531 11.8359 28.0781 11.9062 23.6484L11.9765 19.6875H16.8984H21.7968V24.7266ZM36.3281 24.7266V29.7656L30.0703 29.7188L23.789 29.6484L23.7187 24.6562L23.6718 19.6875H30H36.3281V24.7266ZM42.0937 20.7188C45.0937 22.2188 47.625 25.5703 47.9765 28.5703L48.1171 29.7656H43.0312H37.9687V24.7031V19.6172L39.2109 19.7578C39.8671 19.8516 41.1796 20.2734 42.0937 20.7188ZM48.2343 35.9062L48.2812 40.2891L44.2031 40.3594C39.6562 40.4297 39.2812 40.5469 39 42.0938C38.9062 42.6562 38.7187 42.8906 38.414 42.8906C37.9921 42.8906 37.9687 42.6328 37.9687 37.1484V31.4062L43.0781 31.4531L48.164 31.5234L48.2343 35.9062ZM48.164 43.8281V45.3516L44.4843 45.4219L40.7812 45.4922V43.8281V42.1641L44.4843 42.2344L48.164 42.3047V43.8281Z" fill="#242321" fill-opacity="0.5"/>
</svg>
