<svg width="32" height="32" viewBox="0 0 32 32" fill="none" xmlns="http://www.w3.org/2000/svg">
<path d="M26.6667 12H14.6667C13.1939 12 12 13.1939 12 14.6667V26.6667C12 28.1394 13.1939 29.3333 14.6667 29.3333H26.6667C28.1394 29.3333 29.3333 28.1394 29.3333 26.6667V14.6667C29.3333 13.1939 28.1394 12 26.6667 12Z" stroke="white" stroke-width="2" stroke-linecap="round" stroke-linejoin="round"/>
<path d="M6.6665 20H5.33317C4.62593 20 3.94765 19.719 3.44755 19.2189C2.94746 18.7188 2.6665 18.0405 2.6665 17.3333V5.33329C2.6665 4.62605 2.94746 3.94777 3.44755 3.44767C3.94765 2.94758 4.62593 2.66663 5.33317 2.66663H17.3332C18.0404 2.66663 18.7187 2.94758 19.2188 3.44767C19.7189 3.94777 19.9998 4.62605 19.9998 5.33329V6.66663" stroke="white" stroke-width="2" stroke-linecap="round" stroke-linejoin="round"/>
</svg>
