<svg width="113" height="68" viewBox="0 0 113 68" fill="none" xmlns="http://www.w3.org/2000/svg">
<g clip-path="url(#clip0_37_170)">
<path fill-rule="evenodd" clip-rule="evenodd" d="M53.6942 0.454969C55.7967 0.688844 57.5058 1.4945 58.3351 2.64299C58.5402 2.92698 58.6254 3.12099 58.8029 3.70567C58.8547 3.87614 58.8668 3.8695 59.1319 3.52021C62.0091 -0.270194 68.6357 0.309367 70.6264 4.52556C70.8598 5.01989 70.8527 5.01609 71.0519 4.74881C72.1737 3.24571 76.1989 2.32824 79.3511 2.85731C82.5549 3.39492 84.4007 4.98458 84.4483 7.24644C84.4571 7.65535 84.4757 7.99002 84.4897 7.99002C84.5039 7.99002 84.7242 7.87574 84.9792 7.73602C88.3898 5.86788 93.3675 7.08243 93.3675 9.78243V10.1562L93.7288 9.93012C95.7533 8.6626 99.7202 9.22299 102.516 11.1716C104.703 12.6958 105.476 14.6086 104.62 16.3744C104.306 17.0202 104.305 17.0016 104.643 16.9126C110.085 15.4788 113.718 22.1167 108.629 24.1963L108.07 24.425L108.653 24.4573C110.646 24.5684 112.118 25.881 112.112 27.5429C112.104 29.5277 110.182 31.1643 107.019 31.8786C106.516 31.9922 106.44 32.0244 106.66 32.0294C108.28 32.0656 110.131 33.0875 110.91 34.3751C112.312 36.693 110.855 38.9442 107.749 39.2601C107.348 39.3009 107.007 39.34 106.992 39.3471C106.978 39.3541 107.047 39.456 107.147 39.5735C108.43 41.0895 108.781 43.4871 107.974 45.2245C106.442 48.5223 101.488 49.8504 95.559 48.5532C95.0821 48.4488 94.6624 48.363 94.6265 48.3624C94.5909 48.3617 94.5846 48.5392 94.6131 48.7567C94.76 49.886 93.6541 51.258 92.1877 51.7658C90.4191 52.3782 88.484 52.1454 86.1766 51.0429C85.3907 50.6672 85.3321 50.6495 85.3321 50.7893C85.3321 51.5084 84.4993 52.8442 83.6668 53.461C81.4649 55.0922 77.0843 54.7689 74.292 52.7694L73.8902 52.4816L73.6168 52.7675C72.2986 54.1467 67.695 54.7862 64.1667 54.0802C62.0535 53.6575 60.2951 52.6341 59.8064 51.5427C59.8028 51.5351 59.5697 51.6796 59.2881 51.8641C56.4405 53.7304 50.7708 53.3513 48.6165 51.1509C48.2338 50.7598 48.3152 50.7464 47.6906 51.305C44.6833 53.9957 39.9493 53.6975 38.2586 50.7107L38.0041 50.2613L37.6299 50.4998C33.1907 53.329 23.9305 51.0467 23.1191 46.9235C23.0374 46.5085 22.9876 46.4045 22.8835 46.432C21.7239 46.7405 19.1398 46.5032 17.1351 45.9043C12.6951 44.5777 10.5913 42.1329 11.7892 39.6922L12.0533 39.1544L11.1402 39.1487C8.766 39.1343 6.3263 37.8669 5.05577 35.9878C3.40528 33.5471 4.34545 30.9431 7.6645 28.7637L8.61369 28.1403L8.05348 27.8889C5.21327 26.6151 4.21697 24.339 5.61707 22.3224C6.59202 20.9184 8.81586 19.8931 10.8989 19.8873L11.2969 19.8863L10.831 19.5959C9.23252 18.6002 8.84763 16.0942 10.0494 14.5095C10.934 13.3429 12.7157 12.6964 14.9033 12.7476L15.7468 12.7676L15.6805 12.5143C14.768 9.02139 20.0096 5.66001 24.9394 6.5769L25.5894 6.69783L25.5127 6.51236C25.0161 5.31204 25.6598 3.77079 27.0657 2.7941C29.3799 1.18621 32.6609 1.39123 35.534 3.32316L36.2777 3.82318L36.4369 3.48623C37.8332 0.529194 43.1895 0.519892 46.1209 3.46952C46.5368 3.88791 46.5488 3.88886 46.6915 3.51318C47.4747 1.45027 50.5541 0.105486 53.6942 0.454969ZM50.6891 2.3683C49.3153 2.68456 48.2111 3.47996 47.5405 4.63643L47.2824 5.08159L46.9553 4.71654C45.7106 3.32772 42.6249 2.3142 40.543 2.61034C38.9774 2.83301 37.5524 3.76699 36.9231 4.98287C36.6667 5.47815 36.6848 5.47625 36.0375 5.07589C31.4202 2.21871 27.8144 2.95621 26.6285 7.00023C26.4069 7.75634 26.4773 7.70907 25.8626 7.51392C24.2384 6.99871 22.3693 7.08319 20.7481 7.74514C17.5192 9.06353 16.0651 12.1362 17.8487 13.872C18.1216 14.1376 18.0868 14.1406 17.5148 13.902C14.3023 12.5614 11.2657 13.8498 11.2405 16.5642C11.2249 18.2277 12.5373 19.6416 14.5511 20.131L15.0398 20.2496L14.5053 20.2939C9.33606 20.722 5.22725 25.1749 8.30304 27.0155C9.02569 27.4479 10.5063 27.8504 11.6854 27.9347C11.9434 27.9533 11.9278 27.966 11.366 28.1934C4.80511 30.8482 6.25151 37.8548 13.4997 38.5298C13.8903 38.5663 13.9363 38.5866 13.8963 38.7045C13.672 39.3649 13.5599 39.9118 13.5605 40.3463C13.5651 44.125 20.5295 46.8049 24.1428 44.4183C24.4063 44.2442 24.5216 44.1967 24.4783 44.2799C23.7319 45.7213 24.6802 47.7779 26.7548 49.2155C29.7341 51.2802 33.6441 51.4432 37.4822 49.663C38.3517 49.2598 38.3057 49.2727 38.3057 49.4304C38.3057 49.8018 39.3404 50.7917 40.2767 51.3164C43.0999 52.8989 46.0697 52.1316 48.2955 49.245L48.6913 48.7317L48.7973 49.2266C49.5175 52.5942 57.8124 53.3792 59.8814 50.2754C60.0181 50.0704 60.0984 50.0992 60.1622 50.3758C60.277 50.8732 60.8463 51.5277 61.6295 52.063C65.1742 54.4859 71.6373 54.024 72.7678 51.2669C73.0314 50.6245 73.0083 50.6547 73.1281 50.7885C74.7635 52.6191 79.0542 53.5339 81.7377 52.624C83.1189 52.1557 84.0539 51.2388 84.479 49.9362L84.6157 49.518L85.1806 49.7805C88.5284 51.3362 92.6882 50.4261 93.5171 47.9568L93.6828 47.4634L93.959 47.4983C94.1107 47.5177 94.7076 47.5965 95.2851 47.6737C100.748 48.4038 105.014 47.082 106.012 44.3503C106.662 42.5702 106.117 40.1204 104.777 38.803L104.612 38.6415H105.724C111.163 38.6413 110.212 33.5156 104.515 32.1218C104.044 32.0066 103.973 31.9745 104.188 31.9726C105.538 31.9616 107.477 31.2154 108.552 30.2933C110.823 28.3447 110.146 25.9164 107.014 24.78L106.533 24.6054L107.006 24.2513C108.023 23.4901 108.458 22.5506 108.471 21.0885C108.496 18.2697 106.324 16.8953 103.217 17.7643C103.093 17.7989 103.105 17.752 103.282 17.5016C105.756 13.991 99.266 9.55937 93.5831 10.8789L92.7484 11.0727L92.6909 10.7811C92.1518 8.05684 88.3698 7.19234 84.3374 8.8718L83.5972 9.18009V8.56351C83.5972 3.58209 72.7437 2.03628 70.6292 6.71662L70.4755 7.0568L70.4133 6.6348C69.7948 2.45258 60.3471 1.44989 58.8128 5.40354C58.7399 5.59053 58.678 5.68412 58.6747 5.61122C58.5852 3.64113 53.7285 1.66876 50.6891 2.3683ZM23.5179 52.624C30.2946 53.5221 32.8573 58.3837 28.2078 61.5213C23.6776 64.5784 12.811 63.2524 11.3556 59.465C11.0663 58.7127 11.2616 57.4927 11.8078 56.6378C13.452 54.0654 19.291 52.0638 23.5179 52.624ZM19.4636 53.5815C16.2032 53.7938 12.7064 55.8117 12.668 57.5031C12.6371 58.8693 14.0914 60.6204 15.9786 61.4887C21.499 64.0292 31.354 60.9125 29.395 57.2459C28.3097 55.2143 23.7111 53.3196 20.363 53.5242C20.1871 53.535 19.7825 53.5608 19.4636 53.5815ZM8.12007 60.5776C13.941 61.3691 14.4188 65.7405 8.80765 66.8674C2.81249 68.0713 -2.04445 64.581 1.71208 61.7685C2.92892 60.8575 5.99156 60.2883 8.12007 60.5776ZM4.35505 61.2994C1.50334 61.814 0.786159 63.7264 2.9122 65.1486C5.17193 66.6605 10.219 66.4775 11.3736 64.8419C12.645 63.0411 7.91982 60.6559 4.35505 61.2994Z" fill="#242321"/>
</g>
<defs>
<clipPath id="clip0_37_170">
<rect width="113" height="68" fill="white" transform="matrix(-1 0 0 1 113 0)"/>
</clipPath>
</defs>
</svg>
