<svg width="127" height="40" viewBox="0 0 127 40" fill="none" xmlns="http://www.w3.org/2000/svg">
<path d="M0 12.1739H127V27.8261H0V12.1739Z" fill="#B80300"/>
<path d="M0 12.1739H42.1113V40H0V12.1739Z" fill="#B80300"/>
<path d="M53.716 0H127V24.3478H53.716V0Z" fill="#B80300"/>
<path d="M3.51172 2.10779H6.76849V15.6521H3.51172V2.10779Z" fill="white"/>
<path d="M8.54089 13.3356H8.83316C9.40379 13.3356 9.86308 13.12 10.211 12.6887C10.5729 12.2434 10.8512 11.4365 11.0461 10.2678C11.2409 9.09909 11.3384 7.44344 11.3384 5.30083V2.10779H21.1922V13.3356H23.1755V18.8034H20.2527V15.6521H11.4636V18.8034H8.54089V13.3356ZM17.9354 13.3565V4.40344H14.2611V6.07301C14.2611 9.59301 13.8088 12.0208 12.9041 13.3565H17.9354Z" fill="white"/>
<path d="M25.102 2.10779H35.436V4.42431H28.3588V7.53388H34.747V9.8504H28.3588V13.3356H35.6447V15.6521H25.102V2.10779Z" fill="white"/>
<path d="M40.3493 10.393C39.4725 10.2817 38.8184 10.0034 38.3869 9.55822C37.9555 9.11301 37.7397 8.47996 37.7397 7.65909V4.96692C37.7397 3.93735 38.1434 3.20692 38.9506 2.77561C39.7578 2.3304 41.0661 2.10779 42.8754 2.10779H48.867V15.6521H45.6103V10.6434H43.6896L40.5163 15.6521H36.8003L40.3493 10.393ZM45.6103 8.49388V4.42431H42.9172C42.1934 4.42431 41.6785 4.5217 41.3723 4.71648C41.08 4.89735 40.9339 5.23822 40.9339 5.73909V7.01214C40.9339 7.59648 41.0731 7.99301 41.3514 8.2017C41.6298 8.39648 42.1517 8.49388 42.9172 8.49388H45.6103Z" fill="white"/>
<path d="M46.8468 24.7165H51.4814L54.8217 34.4L58.1202 24.7165H62.4835V38.2608H59.5399V28.2434H59.4772L56.0534 38.2608H53.4439L49.9157 28.2434H49.8322V38.2608H46.8468V24.7165Z" fill="white"/>
<path d="M65.3994 24.7165H75.7333V27.033H68.6561V30.1426H75.0444V32.4591H68.6561V35.9443H75.9421V38.2608H65.3994V24.7165Z" fill="white"/>
<path d="M78.1415 24.7165H87.7657V27.033H81.3983V30.1008H83.4233C84.6759 30.1008 85.678 30.1774 86.4296 30.3304C87.1811 30.4695 87.7517 30.7478 88.1414 31.1652C88.5451 31.5687 88.7469 32.153 88.7469 32.9182V35.0469C88.7469 37.1895 86.9236 38.2608 83.2772 38.2608H78.1415V24.7165ZM83.131 35.9443C83.9522 35.9443 84.5507 35.833 84.9264 35.6104C85.3022 35.3739 85.4901 35.0191 85.4901 34.5461V33.5234C85.4901 33.0921 85.3092 32.8 84.9473 32.6469C84.5854 32.4939 83.9939 32.4174 83.1728 32.4174H81.3774V35.9443H83.131Z" fill="white"/>
<path d="M91.7565 38.4278C91.5339 38.4278 91.2973 38.4 91.0467 38.3443C90.7962 38.3026 90.6153 38.2747 90.5039 38.2608V35.7147C90.8101 35.7565 91.0676 35.7774 91.2764 35.7774C91.9723 35.7774 92.5081 35.5826 92.8839 35.193C93.2597 34.7895 93.5311 33.9965 93.6981 32.8139C93.879 31.6313 93.9695 29.8365 93.9695 27.4295V24.7165H103.823V38.2608H100.567V27.0121H96.9131V28.8904C96.9131 31.4643 96.6765 33.4539 96.2033 34.8591C95.744 36.2643 95.1386 37.2104 94.387 37.6974C93.6494 38.1843 92.7725 38.4278 91.7565 38.4278Z" fill="white"/>
<path d="M106.745 24.7165H110.002V38.2608H106.745V24.7165Z" fill="white"/>
<path d="M112.922 24.7165H118.413C119.707 24.7165 120.702 24.8139 121.398 25.0087C122.108 25.1895 122.609 25.4887 122.901 25.906C123.194 26.3095 123.34 26.88 123.34 27.6174V29.2869C123.34 29.6626 123.187 30.0174 122.881 30.3513C122.588 30.6852 122.24 30.9147 121.837 31.04V31.1443C122.366 31.2 122.846 31.4295 123.277 31.833C123.723 32.2226 123.945 32.6608 123.945 33.1478V35.2347C123.945 36.3339 123.507 37.113 122.63 37.5721C121.753 38.0313 120.396 38.2608 118.559 38.2608H112.922V24.7165ZM118.413 30.2261C118.928 30.2261 119.311 30.1843 119.561 30.1008C119.812 30.0174 119.979 29.8852 120.062 29.7043C120.16 29.5095 120.208 29.2313 120.208 28.8695V28.2017C120.208 27.8817 120.167 27.6452 120.083 27.4921C120 27.3252 119.826 27.2069 119.561 27.1374C119.311 27.0678 118.907 27.033 118.35 27.033H116.179V30.2261H118.413ZM118.497 35.9443C119.29 35.9443 119.853 35.8539 120.188 35.673C120.522 35.4921 120.689 35.2 120.689 34.7965V33.7113C120.689 33.2104 120.556 32.8556 120.292 32.6469C120.041 32.4382 119.589 32.3339 118.935 32.3339H116.179V35.9443H118.497Z" fill="white"/>
</svg>
