<svg width="127" height="40" viewBox="0 0 127 40" fill="none" xmlns="http://www.w3.org/2000/svg">
<path d="M0 12.1739H127V27.8261H0V12.1739Z" fill="#B80300"/>
<path d="M0 12.1739H42.1113V40H0V12.1739Z" fill="#B80300"/>
<path d="M53.716 0H127V24.3478H53.716V0Z" fill="#B80300"/>
<path d="M3.51147 2.10791H6.76824V15.6523H3.51147V2.10791Z" fill="white"/>
<path d="M8.54064 13.3357H8.83292C9.40355 13.3357 9.86283 13.1201 10.2108 12.6888C10.5726 12.2436 10.851 11.4366 11.0458 10.2679C11.2407 9.09922 11.3381 7.44356 11.3381 5.30095V2.10791H21.1919V13.3357H23.1752V18.8036H20.2525V15.6523H11.4634V18.8036H8.54064V13.3357ZM17.9352 13.3566V4.40356H14.2609V6.07313C14.2609 9.59313 13.8085 12.021 12.9039 13.3566H17.9352Z" fill="white"/>
<path d="M25.1017 2.10791H35.4357V4.42443H28.3585V7.534H34.7468V9.85052H28.3585V13.3357H35.6445V15.6523H25.1017V2.10791Z" fill="white"/>
<path d="M40.3491 10.3931C39.4723 10.2818 38.8181 10.0036 38.3867 9.55835C37.9552 9.11313 37.7395 8.48009 37.7395 7.65922V4.96704C37.7395 3.93748 38.1431 3.20704 38.9503 2.77574C39.7576 2.33052 41.0659 2.10791 42.8752 2.10791H48.8668V15.6523H45.61V10.6436H43.6894L40.5161 15.6523H36.8L40.3491 10.3931ZM45.61 8.494V4.42443H42.9169C42.1932 4.42443 41.6782 4.52182 41.372 4.71661C41.0798 4.89748 40.9336 5.23835 40.9336 5.73922V7.01226C40.9336 7.59661 41.0728 7.99313 41.3512 8.20182C41.6295 8.39661 42.1514 8.494 42.9169 8.494H45.61Z" fill="white"/>
<path d="M46.8466 24.7166H51.4812L54.8215 34.4001L58.12 24.7166H62.4832V38.261H59.5396V28.2436H59.477L56.0532 38.261H53.4436L49.9154 28.2436H49.8319V38.261H46.8466V24.7166Z" fill="white"/>
<path d="M65.3991 24.7166H75.7331V27.0331H68.6559V30.1427H75.0442V32.4592H68.6559V35.9444H75.9419V38.261H65.3991V24.7166Z" fill="white"/>
<path d="M78.1413 24.7166H87.7654V27.0331H81.398V30.101H83.4231C84.6757 30.101 85.6777 30.1775 86.4293 30.3305C87.1809 30.4697 87.7515 30.7479 88.1412 31.1653C88.5448 31.5688 88.7466 32.1531 88.7466 32.9183V35.047C88.7466 37.1897 86.9234 38.261 83.2769 38.261H78.1413V24.7166ZM83.1308 35.9444C83.9519 35.9444 84.5504 35.8331 84.9262 35.6105C85.302 35.374 85.4899 35.0192 85.4899 34.5462V33.5236C85.4899 33.0923 85.3089 32.8001 84.9471 32.647C84.5852 32.494 83.9937 32.4175 83.1725 32.4175H81.3771V35.9444H83.1308Z" fill="white"/>
<path d="M91.7563 38.4279C91.5336 38.4279 91.297 38.4001 91.0465 38.3444C90.796 38.3027 90.615 38.2749 90.5037 38.261V35.7149C90.8099 35.7566 91.0674 35.7775 91.2761 35.7775C91.972 35.7775 92.5079 35.5827 92.8836 35.1931C93.2594 34.7897 93.5308 33.9966 93.6978 32.814C93.8788 31.6314 93.9692 29.8366 93.9692 27.4296V24.7166H103.823V38.261H100.566V27.0123H96.9128V28.8905C96.9128 31.4644 96.6762 33.454 96.203 34.8592C95.7437 36.2644 95.1383 37.2105 94.3868 37.6975C93.6491 38.1844 92.7723 38.4279 91.7563 38.4279Z" fill="white"/>
<path d="M106.745 24.7166H110.002V38.261H106.745V24.7166Z" fill="white"/>
<path d="M112.922 24.7166H118.413C119.707 24.7166 120.702 24.814 121.398 25.0088C122.108 25.1897 122.609 25.4888 122.901 25.9062C123.194 26.3096 123.34 26.8801 123.34 27.6175V29.287C123.34 29.6627 123.187 30.0175 122.88 30.3514C122.588 30.6853 122.24 30.9149 121.837 31.0401V31.1444C122.365 31.2001 122.846 31.4297 123.277 31.8331C123.722 32.2227 123.945 32.661 123.945 33.1479V35.2349C123.945 36.334 123.507 37.1131 122.63 37.5723C121.753 38.0314 120.396 38.261 118.559 38.261H112.922V24.7166ZM118.413 30.2262C118.928 30.2262 119.31 30.1844 119.561 30.101C119.812 30.0175 119.979 29.8853 120.062 29.7044C120.159 29.5097 120.208 29.2314 120.208 28.8697V28.2018C120.208 27.8818 120.166 27.6453 120.083 27.4923C119.999 27.3253 119.825 27.207 119.561 27.1375C119.31 27.0679 118.907 27.0331 118.35 27.0331H116.179V30.2262H118.413ZM118.496 35.9444C119.29 35.9444 119.853 35.854 120.187 35.6731C120.521 35.4923 120.688 35.2001 120.688 34.7966V33.7114C120.688 33.2105 120.556 32.8557 120.292 32.647C120.041 32.4383 119.589 32.334 118.935 32.334H116.179V35.9444H118.496Z" fill="white"/>
</svg>
