<svg width="127" height="40" viewBox="0 0 127 40" fill="none" xmlns="http://www.w3.org/2000/svg">
<path d="M0 12.1739H127V27.8261H0V12.1739Z" fill="#B80300"/>
<path d="M0 12.1739H42.1113V40H0V12.1739Z" fill="#B80300"/>
<path d="M53.716 0H127V24.3478H53.716V0Z" fill="#B80300"/>
<path d="M3.51147 2.10782H6.76824V15.6522H3.51147V2.10782Z" fill="white"/>
<path d="M8.54064 13.3356H8.83292C9.40355 13.3356 9.86283 13.12 10.2108 12.6887C10.5726 12.2435 10.851 11.4365 11.0458 10.2678C11.2407 9.09912 11.3381 7.44347 11.3381 5.30086V2.10782H21.1919V13.3356H23.1752V18.8035H20.2525V15.6522H11.4634V18.8035H8.54064V13.3356ZM17.9352 13.3565V4.40347H14.2609V6.07304C14.2609 9.59304 13.8085 12.0209 12.9039 13.3565H17.9352Z" fill="white"/>
<path d="M25.1017 2.10782H35.4357V4.42434H28.3585V7.53391H34.7468V9.85043H28.3585V13.3356H35.6445V15.6522H25.1017V2.10782Z" fill="white"/>
<path d="M40.3491 10.393C39.4723 10.2817 38.8181 10.0035 38.3867 9.55825C37.9552 9.11304 37.7395 8.47999 37.7395 7.65912V4.96695C37.7395 3.93738 38.1431 3.20695 38.9503 2.77564C39.7576 2.33043 41.0659 2.10782 42.8752 2.10782H48.8668V15.6522H45.61V10.6435H43.6894L40.5161 15.6522H36.8L40.3491 10.393ZM45.61 8.49391V4.42434H42.9169C42.1932 4.42434 41.6782 4.52173 41.372 4.71651C41.0798 4.89738 40.9336 5.23825 40.9336 5.73912V7.01217C40.9336 7.59652 41.0728 7.99304 41.3512 8.20173C41.6295 8.39651 42.1514 8.49391 42.9169 8.49391H45.61Z" fill="white"/>
<path d="M46.8466 24.7165H51.4812L54.8215 34.4L58.12 24.7165H62.4832V38.2609H59.5396V28.2435H59.477L56.0532 38.2609H53.4436L49.9154 28.2435H49.8319V38.2609H46.8466V24.7165Z" fill="white"/>
<path d="M65.3991 24.7165H75.7331V27.033H68.6559V30.1426H75.0442V32.4591H68.6559V35.9443H75.9419V38.2609H65.3991V24.7165Z" fill="white"/>
<path d="M78.1413 24.7165H87.7654V27.033H81.398V30.1009H83.4231C84.6757 30.1009 85.6777 30.1774 86.4293 30.3304C87.1809 30.4696 87.7515 30.7478 88.1412 31.1652C88.5448 31.5687 88.7466 32.153 88.7466 32.9183V35.047C88.7466 37.1896 86.9234 38.2609 83.2769 38.2609H78.1413V24.7165ZM83.1308 35.9443C83.9519 35.9443 84.5504 35.833 84.9262 35.6104C85.302 35.3739 85.4899 35.0191 85.4899 34.5461V33.5235C85.4899 33.0922 85.3089 32.8 84.9471 32.6469C84.5852 32.4939 83.9937 32.4174 83.1725 32.4174H81.3771V35.9443H83.1308Z" fill="white"/>
<path d="M91.7563 38.4278C91.5336 38.4278 91.297 38.4 91.0465 38.3443C90.796 38.3026 90.615 38.2748 90.5037 38.2609V35.7148C90.8099 35.7565 91.0674 35.7774 91.2761 35.7774C91.972 35.7774 92.5079 35.5826 92.8836 35.193C93.2594 34.7896 93.5308 33.9965 93.6978 32.8139C93.8788 31.6313 93.9692 29.8365 93.9692 27.4296V24.7165H103.823V38.2609H100.566V27.0122H96.9128V28.8904C96.9128 31.4643 96.6762 33.4539 96.203 34.8591C95.7437 36.2643 95.1383 37.2104 94.3868 37.6974C93.6491 38.1843 92.7723 38.4278 91.7563 38.4278Z" fill="white"/>
<path d="M106.745 24.7165H110.002V38.2609H106.745V24.7165Z" fill="white"/>
<path d="M112.922 24.7165H118.413C119.707 24.7165 120.702 24.8139 121.398 25.0087C122.108 25.1896 122.609 25.4887 122.901 25.9061C123.194 26.3096 123.34 26.88 123.34 27.6174V29.287C123.34 29.6626 123.187 30.0174 122.88 30.3513C122.588 30.6852 122.24 30.9148 121.837 31.04V31.1443C122.365 31.2 122.846 31.4296 123.277 31.833C123.722 32.2226 123.945 32.6609 123.945 33.1478V35.2348C123.945 36.3339 123.507 37.113 122.63 37.5722C121.753 38.0313 120.396 38.2609 118.559 38.2609H112.922V24.7165ZM118.413 30.2261C118.928 30.2261 119.31 30.1843 119.561 30.1009C119.812 30.0174 119.979 29.8852 120.062 29.7043C120.159 29.5096 120.208 29.2313 120.208 28.8696V28.2017C120.208 27.8817 120.166 27.6452 120.083 27.4922C119.999 27.3252 119.825 27.207 119.561 27.1374C119.31 27.0678 118.907 27.033 118.35 27.033H116.179V30.2261H118.413ZM118.496 35.9443C119.29 35.9443 119.853 35.8539 120.187 35.673C120.521 35.4922 120.688 35.2 120.688 34.7965V33.7113C120.688 33.2104 120.556 32.8556 120.292 32.6469C120.041 32.4383 119.589 32.3339 118.935 32.3339H116.179V35.9443H118.496Z" fill="white"/>
</svg>
